{"title":"The.Haunted.S03E02.HDTV.XviD-tNe.avi","uid":6308443,"size":366895104,"categoryP":"video","categoryS":"tv_shows","magnet":"?xt=urn:btih:07076b0a2ff078b937fbe7fa46ae4ffd72e3f9bb&amp;dn=The.Haunted.S03E02.HDTV.XviD-tNe.avi&amp;tr=udp%3A%2F%2Ftracker.openbittorrent.com%3A80&amp;tr=udp%3A%2F%2Fopen.demonii.com%3A1337&amp;tr=udp%3A%2F%2Ftracker.coppersurfer.tk%3A6969&amp;tr=udp%3A%2F%2Fexodus.desync.com%3A6969","seeders":1,"leechers":2,"uploader":"trialNerror","files":1,"time":1302441449,"description":"I don't care if your favorite episode guide website says The Haunted is on season 2. Eight months between the 10th and 11th episode does not constitute as being the same season. Completely idiotic that any episode guide would even consider saying it's the same season. Amazon dot com knows whats up and lists it as season 3.  I completely agree with it.\nI don't want any whining or carping comments about this.\nJust download and enjoy.\n \n\nFormat                           : AVI\nFormat/Info                      : Audio Video Interleave\nFile size                        : 350 MiB\nDuration                         : 42mn 18s\nOverall bit rate                 : 1 156 Kbps\nWriting application              : VirtualDubMod 1.5.10.2 (build 2542/release)\nWriting library                  : VirtualDubMod build 2542/release\n\nVideo\nID                               : 0\nFormat                           : MPEG-4 Visual\nFormat profile                   : Advanced Simple@L5\nFormat settings, BVOP            : Yes\nFormat settings, QPel            : No\nFormat settings, GMC             : No warppoints\nFormat settings, Matrix          : Default (H.263)\nMuxing mode                      : Packed bitstream\nCodec ID                         : XVID\nCodec ID/Hint                    : XviD\nDuration                         : 42mn 18s\nBit rate                         : 1 017 Kbps\nWidth                            : 624 pixels\nHeight                           : 352 pixels\nDisplay aspect ratio             : 16:9\nFrame rate                       : 29.970 fps\nColor space                      : YUV\nChroma subsampling               : 4:2:0\nBit depth                        : 8 bits\nScan type                        : Progressive\nBits/(Pixel*Frame)               : 0.154\nStream size                      : 308 MiB (88%)\nWriting library                  : XviD 58\n\nAudio\nID                               : 1\nFormat                           : MPEG Audio\nFormat version                   : Version 1\nFormat profile                   : Layer 3\nMode                             : Joint stereo\nMode extension                   : MS Stereo\nCodec ID                         : 55\nCodec ID/Hint                    : MP3\nDuration                         : 42mn 17s\nBit rate mode                    : Constant\nBit rate                         : 128 Kbps\nChannel(s)                       : 2 channels\nSampling rate                    : 48.0 KHz\nStream size                      : 38.7 MiB (11%)\nAlignment                        : Aligned on interleaves\nInterleave, duration             : 33 ms (1.00 video frame)\nInterleave, preload duration     : 504 ms\nWriting library                  : LAME3.99a\nEncoding settings                : -m j -V 4 -q 0 -lowpass 17 -b 128\n","torrent":{"xt":"urn:btih:07076b0a2ff078b937fbe7fa46ae4ffd72e3f9bb","amp;dn":"The.Haunted.S03E02.HDTV.XviD-tNe.avi","amp;tr":["udp%3A%2F%2Ftracker.openbittorrent.com%3A80","udp%3A%2F%2Fopen.demonii.com%3A1337","udp%3A%2F%2Ftracker.coppersurfer.tk%3A6969","udp%3A%2F%2Fexodus.desync.com%3A6969"],"infoHash":"07076b0a2ff078b937fbe7fa46ae4ffd72e3f9bb","infoHashBuffer":{"type":"Buffer","data":[7,7,107,10,47,240,120,185,55,251,231,250,70,174,79,253,114,227,249,187]},"announce":[],"urlList":[]}}